<svg width="34" height="40" viewBox="0 0 34 40" fill="none" xmlns="http://www.w3.org/2000/svg">
<path fill-rule="evenodd" clip-rule="evenodd" d="M32.4258 30.838C31.8522 32.1732 31.1438 33.4464 30.3118 34.6379C29.5286 35.8323 28.6154 36.936 27.5887 37.929C26.6555 38.8618 25.407 39.4115 24.0887 39.47C22.972 39.4209 21.8751 39.1589 20.8568 38.6979C19.7573 38.2191 18.5756 37.9579 17.3767 37.929C16.1457 37.9533 14.931 38.2143 13.7987 38.6979C12.8206 39.1394 11.7755 39.4142 10.7068 39.5109C9.34802 39.4946 8.05517 38.923 7.12878 37.929C6.05749 36.901 5.10253 35.7585 4.28076 34.522C2.99743 32.6815 1.98352 30.6671 1.26977 28.54C0.455319 26.2499 0.0278284 23.8403 0.00475711 21.41C-0.059696 19.0261 0.531857 16.6705 1.71484 14.5999C2.57641 13.1043 3.80957 11.8564 5.2948 10.9769C6.75891 10.1009 8.42956 9.62946 10.1357 9.61096C11.4241 9.68726 12.6901 9.98181 13.8798 10.4819C14.828 10.8996 15.8263 11.193 16.8497 11.355C17.9781 11.1196 19.081 10.775 20.1428 10.3259C21.5621 9.7489 23.0874 9.47797 24.6188 9.53094C27.5753 9.60748 30.3275 11.0566 32.0637 13.4509C29.2925 14.9238 27.5919 17.8366 27.6717 20.9739C27.6421 23.3524 28.6344 25.6293 30.3967 27.2269C31.1876 27.9836 32.1106 28.589 33.1197 29.0129C32.9011 29.6463 32.6698 30.2536 32.4258 30.835V30.838ZM24.8397 0.986939C24.8136 3.02026 24.0496 4.97485 22.6898 6.48688C20.9618 8.50696 18.8717 9.67395 16.6057 9.48694C16.5753 9.23981 16.5599 8.99097 16.5598 8.74194C16.6284 6.67529 17.4381 4.70227 18.8407 3.18298C19.6191 2.31055 20.564 1.60236 21.6197 1.09998C22.6083 0.589539 23.6894 0.283447 24.7987 0.199951C24.8269 0.460999 24.8406 0.723389 24.8397 0.985962V0.986939Z" fill="white"/>
</svg>
