<svg width="34" height="35" viewBox="0 0 34 35" fill="none" xmlns="http://www.w3.org/2000/svg">
<path fill-rule="evenodd" clip-rule="evenodd" d="M33.5198 17.4911C33.5206 16.3286 33.4204 15.1663 33.2201 14.0191L17.0978 14.0171V20.6011H26.3328C25.9512 22.7285 24.7163 24.6072 22.9147 25.8011L22.9147 30.0731H28.4247C31.8279 26.7897 33.6794 22.2173 33.5198 17.4911Z" fill="#4285F4"/>
<path fill-rule="evenodd" clip-rule="evenodd" d="M17.0978 34.1963C21.2632 34.3131 25.3163 32.8368 28.4308 30.0682L22.9188 25.7972C20.2305 27.5167 16.9003 27.9028 13.89 26.8439C10.8796 25.785 8.52454 23.399 7.50476 20.3752H1.81879V24.7753C4.72168 30.5511 10.6334 34.1963 17.0978 34.1963Z" fill="#34A853"/>
<path fill-rule="evenodd" clip-rule="evenodd" d="M7.49774 20.3752C6.78162 18.252 6.78162 15.9524 7.49774 13.8292V9.42517H1.81873C-0.606201 14.2559 -0.606201 19.9484 1.81873 24.7792L7.49774 20.3752Z" fill="#FBBC04"/>
<path fill-rule="evenodd" clip-rule="evenodd" d="M17.0978 6.76721C19.5357 6.72778 21.8914 7.64831 23.6567 9.3302L28.5378 4.44922C25.4421 1.54456 21.3425 -0.0493774 17.0978 0.00115967C10.6326 0.00012207 4.72003 3.64655 1.81879 9.42419L7.49774 13.8242C8.85419 9.65662 12.7153 6.81671 17.0978 6.76318V6.76721Z" fill="#EA4335"/>
</svg>
