<svg width="788" height="338" viewBox="0 0 788 338" fill="none" xmlns="http://www.w3.org/2000/svg">
<path fill-rule="evenodd" clip-rule="evenodd" d="M787 338H1.52588e-05V174C-0.00405884 162.242 1.17891 150.494 3.53098 138.953C8.08768 116.689 16.9854 95.5405 29.716 76.7153C48.6017 48.7412 75.1937 26.8433 106.271 13.6743C116.797 9.2251 127.738 5.82886 138.933 3.53516C150.474 1.18188 162.222 -0.00244141 174 0.000244141H787V338Z" fill="#AFAAC1"/>
<path fill-rule="evenodd" clip-rule="evenodd" d="M788 338H16V174C15.9947 163.211 17.0812 152.407 19.2429 141.795C23.4321 121.314 31.6156 101.86 43.326 84.5432C60.6927 58.8186 85.147 38.6824 113.726 26.5742C123.405 22.4832 133.465 19.3601 143.759 17.2512C154.37 15.0876 165.171 13.9983 176 14.0002H788V338Z" fill="black"/>
<path fill-rule="evenodd" clip-rule="evenodd" d="M787 338H77V168C76.9697 148.873 82.6825 130.175 93.3987 114.328C103.817 98.8936 118.487 86.811 135.632 79.5442C147.454 74.541 160.163 71.9753 173 72.0002H787V338Z" fill="#1E1E1E"/>
<path fill-rule="evenodd" clip-rule="evenodd" d="M767.8 133H334C306.386 133 284 110.615 284 83.0002C284 55.386 306.386 33.0002 334 33.0002H767.8C774.39 32.9885 780.917 34.2874 787 36.8213V129.179C780.917 131.713 774.39 133.012 767.8 133H767.8Z" fill="black"/>
<path fill-rule="evenodd" clip-rule="evenodd" d="M496 86.0002C496 83.515 496.879 81.3936 498.636 79.6363C500.393 77.8789 502.515 77.0002 505 77.0002H602C604.485 77.0002 606.607 77.8789 608.364 79.6363C610.121 81.3936 611 83.515 611 86.0002C611 88.4855 610.121 90.6068 608.364 92.3642C606.607 94.1216 604.485 95.0002 602 95.0002H505C502.515 95.0002 500.393 94.1216 498.636 92.3642C496.879 90.6068 496 88.4855 496 86.0002Z" fill="#2B2B29"/>
<circle cx="657" cy="86.0002" r="17" fill="#171717"/>
<circle cx="657" cy="86.0002" r="16" stroke="#2B2B29" stroke-width="2"/>
<circle cx="657" cy="86.0002" r="6" fill="#232A5E"/>
<path fill-rule="evenodd" clip-rule="evenodd" d="M781 303H125C116.163 303 109 295.837 109 287V245C109 236.163 116.163 229 125 229H781C783.426 228.993 785.82 229.543 788 230.608V301.391C785.821 302.456 783.426 303.007 781 303Z" fill="#323234"/>
<path d="M417.169 276.154L422.928 259.509H425.133L417.306 280.974C417.146 281.395 416.941 281.862 416.69 282.375C416.451 282.888 416.132 283.378 415.733 283.845C415.346 284.323 414.856 284.711 414.264 285.007C413.683 285.314 412.971 285.468 412.127 285.468C411.911 285.468 411.632 285.44 411.29 285.383C410.96 285.337 410.72 285.292 410.572 285.246L410.555 283.52C410.681 283.554 410.863 283.583 411.102 283.605C411.341 283.628 411.507 283.64 411.598 283.64C412.338 283.64 412.959 283.514 413.46 283.264C413.973 283.013 414.4 282.637 414.742 282.136C415.084 281.646 415.386 281.031 415.648 280.29L417.169 276.154ZM411.786 259.509L417.682 275.385L418.229 277.521L416.742 278.359L409.564 259.509H411.786ZM426.927 269.045V268.481C426.927 267.137 427.121 265.895 427.508 264.755C427.896 263.616 428.448 262.631 429.166 261.799C429.895 260.967 430.767 260.323 431.781 259.868C432.795 259.401 433.923 259.167 435.165 259.167C436.418 259.167 437.551 259.401 438.565 259.868C439.579 260.323 440.451 260.967 441.18 261.799C441.909 262.631 442.468 263.616 442.855 264.755C443.242 265.895 443.436 267.137 443.436 268.481V269.045C443.436 270.389 443.242 271.631 442.855 272.771C442.468 273.898 441.909 274.878 441.18 275.71C440.462 276.542 439.597 277.191 438.583 277.658C437.569 278.114 436.441 278.342 435.199 278.342C433.945 278.342 432.812 278.114 431.798 277.658C430.784 277.191 429.912 276.542 429.183 275.71C428.454 274.878 427.896 273.898 427.508 272.771C427.121 271.631 426.927 270.389 426.927 269.045ZM428.961 268.481V269.045C428.961 270.059 429.098 271.022 429.371 271.933C429.645 272.833 430.043 273.636 430.567 274.343C431.091 275.038 431.741 275.585 432.516 275.983C433.29 276.382 434.185 276.582 435.199 276.582C436.201 276.582 437.084 276.382 437.848 275.983C438.622 275.585 439.272 275.038 439.796 274.343C440.32 273.636 440.713 272.833 440.975 271.933C441.249 271.022 441.385 270.059 441.385 269.045V268.481C441.385 267.478 441.249 266.527 440.975 265.627C440.713 264.727 440.314 263.924 439.779 263.217C439.255 262.511 438.605 261.953 437.831 261.542C437.056 261.132 436.167 260.927 435.165 260.927C434.162 260.927 433.273 261.132 432.499 261.542C431.735 261.953 431.086 262.511 430.55 263.217C430.026 263.924 429.627 264.727 429.354 265.627C429.092 266.527 428.961 267.478 428.961 268.481ZM459.518 273.728V259.509H461.568V278H459.603L459.518 273.728ZM459.894 270.31L460.953 270.275C460.953 271.438 460.816 272.508 460.543 273.488C460.27 274.468 459.842 275.323 459.261 276.052C458.68 276.781 457.928 277.345 457.005 277.744C456.083 278.142 454.972 278.342 453.673 278.342C452.773 278.342 451.947 278.216 451.195 277.966C450.454 277.704 449.816 277.294 449.281 276.735C448.745 276.177 448.329 275.454 448.033 274.565C447.748 273.676 447.606 272.6 447.606 271.335V259.509H449.64V271.369C449.64 272.36 449.748 273.186 449.964 273.847C450.192 274.508 450.5 275.038 450.887 275.437C451.286 275.835 451.742 276.12 452.254 276.291C452.767 276.462 453.32 276.547 453.912 276.547C455.416 276.547 456.601 276.257 457.467 275.676C458.344 275.095 458.965 274.331 459.33 273.386C459.706 272.429 459.894 271.403 459.894 270.31ZM468.951 262.568V278H466.917V259.509H468.9L468.951 262.568ZM475.497 259.372L475.445 261.252C475.217 261.218 474.995 261.189 474.779 261.167C474.562 261.144 474.329 261.132 474.078 261.132C473.189 261.132 472.409 261.298 471.737 261.628C471.076 261.947 470.518 262.397 470.062 262.978C469.606 263.548 469.259 264.22 469.02 264.995C468.78 265.758 468.644 266.578 468.609 267.456L467.857 267.746C467.857 266.538 467.983 265.416 468.233 264.379C468.484 263.343 468.866 262.437 469.378 261.662C469.903 260.876 470.558 260.266 471.344 259.833C472.141 259.389 473.076 259.167 474.146 259.167C474.409 259.167 474.665 259.19 474.916 259.235C475.178 259.27 475.371 259.315 475.497 259.372ZM480.743 263.457V278H478.709V259.509H480.658L480.743 263.457ZM480.282 267.609L479.376 267.097C479.444 266.003 479.667 264.978 480.042 264.021C480.418 263.063 480.925 262.22 481.563 261.491C482.213 260.762 482.971 260.192 483.836 259.782C484.714 259.372 485.682 259.167 486.742 259.167C487.665 259.167 488.491 259.292 489.22 259.543C489.949 259.794 490.57 260.192 491.083 260.739C491.595 261.286 491.983 261.987 492.245 262.841C492.518 263.696 492.655 264.738 492.655 265.969V278H490.604V265.952C490.604 264.676 490.427 263.679 490.074 262.961C489.721 262.232 489.22 261.713 488.57 261.406C487.921 261.098 487.152 260.944 486.263 260.944C485.283 260.944 484.423 261.161 483.683 261.594C482.953 262.015 482.338 262.568 481.837 263.251C481.347 263.924 480.971 264.647 480.709 265.422C480.447 266.185 480.305 266.914 480.282 267.609ZM509.198 274.685V265.148C509.198 264.271 509.015 263.514 508.651 262.875C508.286 262.237 507.751 261.748 507.044 261.406C506.338 261.064 505.466 260.893 504.43 260.893C503.473 260.893 502.618 261.064 501.866 261.406C501.126 261.736 500.539 262.186 500.106 262.756C499.684 263.314 499.474 263.935 499.474 264.619L497.423 264.602C497.423 263.907 497.594 263.234 497.936 262.585C498.277 261.936 498.762 261.354 499.388 260.842C500.015 260.329 500.761 259.925 501.627 259.628C502.504 259.321 503.467 259.167 504.515 259.167C505.837 259.167 506.999 259.389 508.001 259.833C509.015 260.278 509.807 260.944 510.377 261.833C510.947 262.722 511.231 263.838 511.231 265.183V274.121C511.231 274.759 511.277 275.419 511.368 276.103C511.471 276.787 511.613 277.351 511.795 277.795V278H509.625C509.488 277.59 509.38 277.077 509.3 276.462C509.232 275.835 509.198 275.243 509.198 274.685ZM509.676 267.233L509.71 268.806H505.694C504.646 268.806 503.706 268.903 502.875 269.096C502.054 269.278 501.359 269.552 500.79 269.917C500.22 270.27 499.781 270.697 499.474 271.198C499.177 271.7 499.029 272.269 499.029 272.907C499.029 273.568 499.194 274.172 499.525 274.719C499.867 275.266 500.345 275.704 500.96 276.035C501.587 276.354 502.328 276.513 503.182 276.513C504.321 276.513 505.324 276.302 506.19 275.881C507.067 275.459 507.791 274.907 508.36 274.223C508.93 273.54 509.312 272.793 509.505 271.984L510.394 273.164C510.246 273.733 509.972 274.32 509.574 274.924C509.186 275.516 508.679 276.075 508.053 276.599C507.426 277.111 506.686 277.533 505.831 277.863C504.988 278.182 504.031 278.342 502.96 278.342C501.752 278.342 500.698 278.114 499.798 277.658C498.91 277.202 498.215 276.582 497.713 275.795C497.223 274.998 496.979 274.098 496.979 273.095C496.979 272.184 497.172 271.369 497.56 270.651C497.947 269.922 498.505 269.307 499.234 268.806C499.975 268.293 500.864 267.906 501.9 267.644C502.949 267.37 504.122 267.233 505.421 267.233H509.676ZM518.648 263.337V278H516.598V259.509H518.563L518.648 263.337ZM518.272 267.609L517.281 267.097C517.35 266.003 517.555 264.978 517.896 264.021C518.25 263.063 518.74 262.22 519.366 261.491C519.993 260.762 520.745 260.192 521.622 259.782C522.499 259.372 523.496 259.167 524.613 259.167C525.513 259.167 526.327 259.292 527.057 259.543C527.797 259.782 528.424 260.164 528.937 260.688C529.461 261.201 529.865 261.873 530.15 262.705C530.435 263.536 530.577 264.533 530.577 265.695V278H528.543V265.764C528.543 264.533 528.35 263.57 527.962 262.875C527.586 262.181 527.057 261.685 526.373 261.389C525.701 261.092 524.92 260.944 524.032 260.944C522.984 260.944 522.095 261.161 521.366 261.594C520.648 262.015 520.061 262.568 519.605 263.251C519.161 263.924 518.831 264.647 518.614 265.422C518.398 266.185 518.284 266.914 518.272 267.609ZM530.56 266.003L529.193 266.037C529.25 265.137 529.455 264.277 529.808 263.457C530.173 262.636 530.668 261.907 531.295 261.269C531.922 260.62 532.668 260.107 533.534 259.731C534.411 259.355 535.396 259.167 536.49 259.167C537.447 259.167 538.302 259.298 539.054 259.56C539.806 259.811 540.438 260.215 540.951 260.773C541.475 261.32 541.874 262.021 542.147 262.875C542.42 263.73 542.557 264.755 542.557 265.952V278H540.506V265.935C540.506 264.624 540.313 263.61 539.925 262.893C539.549 262.163 539.025 261.656 538.353 261.372C537.681 261.087 536.895 260.944 535.995 260.944C535.106 260.956 534.326 261.121 533.653 261.44C532.981 261.748 532.417 262.158 531.961 262.67C531.517 263.172 531.175 263.713 530.936 264.294C530.708 264.875 530.583 265.445 530.56 266.003ZM554.896 278.342C553.688 278.342 552.577 278.12 551.563 277.675C550.561 277.231 549.684 276.604 548.932 275.795C548.191 274.986 547.616 274.029 547.206 272.924C546.807 271.808 546.607 270.589 546.607 269.267V268.532C546.607 267.108 546.818 265.821 547.24 264.67C547.661 263.519 548.242 262.534 548.983 261.713C549.723 260.893 550.567 260.266 551.512 259.833C552.469 259.389 553.472 259.167 554.52 259.167C555.694 259.167 556.736 259.378 557.647 259.799C558.559 260.209 559.322 260.796 559.938 261.56C560.564 262.312 561.037 263.206 561.356 264.243C561.675 265.268 561.834 266.402 561.834 267.644V268.891H547.838V267.148H559.801V266.909C559.778 265.872 559.567 264.903 559.168 264.003C558.781 263.092 558.2 262.351 557.425 261.782C556.651 261.212 555.682 260.927 554.52 260.927C553.654 260.927 552.857 261.11 552.127 261.474C551.41 261.839 550.789 262.363 550.265 263.046C549.752 263.719 549.353 264.522 549.068 265.456C548.795 266.379 548.658 267.404 548.658 268.532V269.267C548.658 270.292 548.806 271.25 549.103 272.138C549.41 273.015 549.843 273.79 550.401 274.462C550.971 275.135 551.643 275.659 552.418 276.035C553.193 276.411 554.047 276.599 554.981 276.599C556.075 276.599 557.044 276.399 557.887 276C558.73 275.59 559.487 274.947 560.16 274.069L561.441 275.061C561.043 275.653 560.541 276.2 559.938 276.701C559.345 277.202 558.633 277.601 557.801 277.897C556.97 278.194 556.001 278.342 554.896 278.342ZM565.68 276.752C565.68 276.354 565.805 276.018 566.056 275.744C566.318 275.459 566.671 275.317 567.115 275.317C567.571 275.317 567.93 275.454 568.192 275.727C568.454 276 568.585 276.342 568.585 276.752C568.585 277.14 568.454 277.47 568.192 277.744C567.93 278.017 567.571 278.154 567.115 278.154C566.671 278.154 566.318 278.017 566.056 277.744C565.805 277.47 565.68 277.14 565.68 276.752ZM576.173 263.337V278H574.122V259.509H576.087L576.173 263.337ZM575.797 267.609L574.806 267.097C574.874 266.003 575.079 264.978 575.421 264.021C575.774 263.063 576.264 262.22 576.891 261.491C577.517 260.762 578.269 260.192 579.146 259.782C580.024 259.372 581.021 259.167 582.137 259.167C583.037 259.167 583.852 259.292 584.581 259.543C585.322 259.782 585.948 260.164 586.461 260.688C586.985 261.201 587.389 261.873 587.674 262.705C587.959 263.536 588.102 264.533 588.102 265.695V278H586.068V265.764C586.068 264.533 585.874 263.57 585.487 262.875C585.111 262.181 584.581 261.685 583.897 261.389C583.225 261.092 582.445 260.944 581.556 260.944C580.508 260.944 579.619 261.161 578.89 261.594C578.172 262.015 577.586 262.568 577.13 263.251C576.686 263.924 576.355 264.647 576.139 265.422C575.922 266.185 575.808 266.914 575.797 267.609ZM588.084 266.003L586.717 266.037C586.774 265.137 586.979 264.277 587.333 263.457C587.697 262.636 588.193 261.907 588.819 261.269C589.446 260.62 590.192 260.107 591.058 259.731C591.935 259.355 592.921 259.167 594.015 259.167C594.972 259.167 595.826 259.298 596.578 259.56C597.33 259.811 597.962 260.215 598.475 260.773C598.999 261.32 599.398 262.021 599.671 262.875C599.945 263.73 600.082 264.755 600.082 265.952V278H598.031V265.935C598.031 264.624 597.837 263.61 597.45 262.893C597.074 262.163 596.55 261.656 595.877 261.372C595.205 261.087 594.419 260.944 593.519 260.944C592.63 260.956 591.85 261.121 591.178 261.44C590.506 261.748 589.942 262.158 589.486 262.67C589.042 263.172 588.7 263.713 588.46 264.294C588.233 264.875 588.107 265.445 588.084 266.003ZM616.522 274.685V265.148C616.522 264.271 616.34 263.514 615.975 262.875C615.611 262.237 615.075 261.748 614.369 261.406C613.662 261.064 612.791 260.893 611.754 260.893C610.797 260.893 609.942 261.064 609.19 261.406C608.45 261.736 607.863 262.186 607.43 262.756C607.009 263.314 606.798 263.935 606.798 264.619L604.747 264.602C604.747 263.907 604.918 263.234 605.26 262.585C605.602 261.936 606.086 261.354 606.712 260.842C607.339 260.329 608.085 259.925 608.951 259.628C609.828 259.321 610.791 259.167 611.839 259.167C613.161 259.167 614.323 259.389 615.326 259.833C616.34 260.278 617.132 260.944 617.701 261.833C618.271 262.722 618.556 263.838 618.556 265.183V274.121C618.556 274.759 618.601 275.419 618.692 276.103C618.795 276.787 618.937 277.351 619.12 277.795V278H616.949C616.812 277.59 616.704 277.077 616.625 276.462C616.556 275.835 616.522 275.243 616.522 274.685ZM617 267.233L617.035 268.806H613.019C611.97 268.806 611.03 268.903 610.199 269.096C609.378 269.278 608.683 269.552 608.114 269.917C607.544 270.27 607.105 270.697 606.798 271.198C606.502 271.7 606.354 272.269 606.354 272.907C606.354 273.568 606.519 274.172 606.849 274.719C607.191 275.266 607.669 275.704 608.285 276.035C608.911 276.354 609.652 276.513 610.506 276.513C611.646 276.513 612.648 276.302 613.514 275.881C614.391 275.459 615.115 274.907 615.685 274.223C616.254 273.54 616.636 272.793 616.83 271.984L617.718 273.164C617.57 273.733 617.297 274.32 616.898 274.924C616.511 275.516 616.004 276.075 615.377 276.599C614.75 277.111 614.01 277.533 613.155 277.863C612.312 278.182 611.355 278.342 610.284 278.342C609.076 278.342 608.023 278.114 607.123 277.658C606.234 277.202 605.539 276.582 605.038 275.795C604.548 274.998 604.303 274.098 604.303 273.095C604.303 272.184 604.496 271.369 604.884 270.651C605.271 269.922 605.829 269.307 606.559 268.806C607.299 268.293 608.188 267.906 609.225 267.644C610.273 267.37 611.446 267.233 612.745 267.233H617ZM626.075 262.568V278H624.042V259.509H626.024L626.075 262.568ZM632.621 259.372L632.569 261.252C632.341 261.218 632.119 261.189 631.903 261.167C631.686 261.144 631.453 261.132 631.202 261.132C630.313 261.132 629.533 261.298 628.861 261.628C628.2 261.947 627.642 262.397 627.186 262.978C626.73 263.548 626.383 264.22 626.144 264.995C625.904 265.758 625.768 266.578 625.733 267.456L624.981 267.746C624.981 266.538 625.107 265.416 625.357 264.379C625.608 263.343 625.99 262.437 626.502 261.662C627.027 260.876 627.682 260.266 628.468 259.833C629.265 259.389 630.2 259.167 631.271 259.167C631.533 259.167 631.789 259.19 632.04 259.235C632.302 259.27 632.495 259.315 632.621 259.372ZM638.106 259.509V278H636.073V259.509H638.106ZM635.714 254.16C635.714 253.772 635.833 253.448 636.073 253.186C636.323 252.912 636.665 252.775 637.098 252.775C637.531 252.775 637.873 252.912 638.124 253.186C638.386 253.448 638.517 253.772 638.517 254.16C638.517 254.536 638.386 254.86 638.124 255.134C637.873 255.396 637.531 255.527 637.098 255.527C636.665 255.527 636.323 255.396 636.073 255.134C635.833 254.86 635.714 254.536 635.714 254.16ZM650.514 276.582C651.38 276.582 652.188 276.422 652.94 276.103C653.704 275.773 654.33 275.288 654.82 274.65C655.322 274.001 655.606 273.209 655.675 272.275H657.623C657.566 273.448 657.207 274.497 656.546 275.419C655.897 276.331 655.042 277.049 653.983 277.573C652.935 278.085 651.778 278.342 650.514 278.342C649.226 278.342 648.087 278.108 647.096 277.641C646.116 277.174 645.296 276.525 644.635 275.693C643.974 274.85 643.473 273.87 643.131 272.753C642.8 271.625 642.635 270.412 642.635 269.113V268.396C642.635 267.097 642.8 265.889 643.131 264.772C643.473 263.645 643.974 262.665 644.635 261.833C645.296 260.99 646.116 260.335 647.096 259.868C648.076 259.401 649.209 259.167 650.497 259.167C651.818 259.167 653.003 259.435 654.051 259.97C655.111 260.506 655.954 261.263 656.581 262.243C657.219 263.223 657.566 264.385 657.623 265.729H655.675C655.618 264.738 655.356 263.884 654.889 263.166C654.422 262.448 653.806 261.896 653.043 261.508C652.28 261.121 651.431 260.927 650.497 260.927C649.448 260.927 648.554 261.132 647.813 261.542C647.073 261.941 646.469 262.494 646.002 263.2C645.546 263.895 645.21 264.693 644.994 265.593C644.777 266.481 644.669 267.416 644.669 268.396V269.113C644.669 270.104 644.771 271.05 644.977 271.95C645.193 272.839 645.529 273.631 645.985 274.326C646.452 275.021 647.056 275.573 647.796 275.983C648.548 276.382 649.454 276.582 650.514 276.582ZM660.614 269.045V268.481C660.614 267.137 660.807 265.895 661.195 264.755C661.582 263.616 662.135 262.631 662.853 261.799C663.582 260.967 664.453 260.323 665.467 259.868C666.481 259.401 667.609 259.167 668.851 259.167C670.104 259.167 671.238 259.401 672.252 259.868C673.266 260.323 674.138 260.967 674.867 261.799C675.596 262.631 676.154 263.616 676.542 264.755C676.929 265.895 677.123 267.137 677.123 268.481V269.045C677.123 270.389 676.929 271.631 676.542 272.771C676.154 273.898 675.596 274.878 674.867 275.71C674.149 276.542 673.283 277.191 672.269 277.658C671.255 278.114 670.127 278.342 668.885 278.342C667.632 278.342 666.498 278.114 665.484 277.658C664.47 277.191 663.599 276.542 662.87 275.71C662.14 274.878 661.582 273.898 661.195 272.771C660.807 271.631 660.614 270.389 660.614 269.045ZM662.647 268.481V269.045C662.647 270.059 662.784 271.022 663.058 271.933C663.331 272.833 663.73 273.636 664.254 274.343C664.778 275.038 665.427 275.585 666.202 275.983C666.977 276.382 667.871 276.582 668.885 276.582C669.888 276.582 670.771 276.382 671.534 275.983C672.309 275.585 672.958 275.038 673.482 274.343C674.007 273.636 674.4 272.833 674.662 271.933C674.935 271.022 675.072 270.059 675.072 269.045V268.481C675.072 267.478 674.935 266.527 674.662 265.627C674.4 264.727 674.001 263.924 673.465 263.217C672.941 262.511 672.292 261.953 671.517 261.542C670.742 261.132 669.854 260.927 668.851 260.927C667.848 260.927 666.96 261.132 666.185 261.542C665.422 261.953 664.772 262.511 664.237 263.217C663.713 263.924 663.314 264.727 663.041 265.627C662.778 266.527 662.647 267.478 662.647 268.481ZM681.173 276.752C681.173 276.354 681.298 276.018 681.549 275.744C681.811 275.459 682.164 275.317 682.608 275.317C683.064 275.317 683.423 275.454 683.685 275.727C683.947 276 684.078 276.342 684.078 276.752C684.078 277.14 683.947 277.47 683.685 277.744C683.423 278.017 683.064 278.154 682.608 278.154C682.164 278.154 681.811 278.017 681.549 277.744C681.298 277.47 681.173 277.14 681.173 276.752ZM696.554 276.582C697.42 276.582 698.229 276.422 698.98 276.103C699.744 275.773 700.37 275.288 700.86 274.65C701.362 274.001 701.646 273.209 701.715 272.275H703.663C703.606 273.448 703.247 274.497 702.586 275.419C701.937 276.331 701.083 277.049 700.023 277.573C698.975 278.085 697.818 278.342 696.554 278.342C695.266 278.342 694.127 278.108 693.136 277.641C692.156 277.174 691.336 276.525 690.675 275.693C690.014 274.85 689.513 273.87 689.171 272.753C688.84 271.625 688.675 270.412 688.675 269.113V268.396C688.675 267.097 688.84 265.889 689.171 264.772C689.513 263.645 690.014 262.665 690.675 261.833C691.336 260.99 692.156 260.335 693.136 259.868C694.116 259.401 695.249 259.167 696.537 259.167C697.858 259.167 699.043 259.435 700.091 259.97C701.151 260.506 701.994 261.263 702.621 262.243C703.259 263.223 703.606 264.385 703.663 265.729H701.715C701.658 264.738 701.396 263.884 700.929 263.166C700.462 262.448 699.846 261.896 699.083 261.508C698.32 261.121 697.471 260.927 696.537 260.927C695.488 260.927 694.594 261.132 693.854 261.542C693.113 261.941 692.509 262.494 692.042 263.2C691.586 263.895 691.25 264.693 691.034 265.593C690.817 266.481 690.709 267.416 690.709 268.396V269.113C690.709 270.104 690.812 271.05 691.017 271.95C691.233 272.839 691.569 273.631 692.025 274.326C692.492 275.021 693.096 275.573 693.836 275.983C694.588 276.382 695.494 276.582 696.554 276.582ZM706.654 269.045V268.481C706.654 267.137 706.847 265.895 707.235 264.755C707.622 263.616 708.175 262.631 708.893 261.799C709.622 260.967 710.493 260.323 711.507 259.868C712.521 259.401 713.649 259.167 714.891 259.167C716.144 259.167 717.278 259.401 718.292 259.868C719.306 260.323 720.178 260.967 720.907 261.799C721.636 262.631 722.194 263.616 722.582 264.755C722.969 265.895 723.163 267.137 723.163 268.481V269.045C723.163 270.389 722.969 271.631 722.582 272.771C722.194 273.898 721.636 274.878 720.907 275.71C720.189 276.542 719.323 277.191 718.309 277.658C717.295 278.114 716.167 278.342 714.925 278.342C713.672 278.342 712.538 278.114 711.524 277.658C710.51 277.191 709.639 276.542 708.91 275.71C708.181 274.878 707.622 273.898 707.235 272.771C706.847 271.631 706.654 270.389 706.654 269.045ZM708.688 268.481V269.045C708.688 270.059 708.824 271.022 709.098 271.933C709.371 272.833 709.77 273.636 710.294 274.343C710.818 275.038 711.467 275.585 712.242 275.983C713.017 276.382 713.911 276.582 714.925 276.582C715.928 276.582 716.811 276.382 717.574 275.983C718.349 275.585 718.998 275.038 719.522 274.343C720.047 273.636 720.44 272.833 720.702 271.933C720.975 271.022 721.112 270.059 721.112 269.045V268.481C721.112 267.478 720.975 266.527 720.702 265.627C720.44 264.727 720.041 263.924 719.505 263.217C718.981 262.511 718.332 261.953 717.557 261.542C716.782 261.132 715.894 260.927 714.891 260.927C713.889 260.927 713 261.132 712.225 261.542C711.462 261.953 710.812 262.511 710.277 263.217C709.753 263.924 709.354 264.727 709.081 265.627C708.819 266.527 708.688 267.478 708.688 268.481ZM729.332 263.337V278H727.281V259.509H729.247L729.332 263.337ZM728.956 267.609L727.965 267.097C728.033 266.003 728.238 264.978 728.58 264.021C728.933 263.063 729.423 262.22 730.05 261.491C730.676 260.762 731.428 260.192 732.306 259.782C733.183 259.372 734.18 259.167 735.296 259.167C736.196 259.167 737.011 259.292 737.74 259.543C738.481 259.782 739.107 260.164 739.62 260.688C740.144 261.201 740.549 261.873 740.833 262.705C741.118 263.536 741.261 264.533 741.261 265.695V278H739.227V265.764C739.227 264.533 739.033 263.57 738.646 262.875C738.27 262.181 737.74 261.685 737.057 261.389C736.384 261.092 735.604 260.944 734.715 260.944C733.667 260.944 732.778 261.161 732.049 261.594C731.332 262.015 730.745 262.568 730.289 263.251C729.845 263.924 729.514 264.647 729.298 265.422C729.081 266.185 728.967 266.914 728.956 267.609ZM741.244 266.003L739.876 266.037C739.933 265.137 740.139 264.277 740.492 263.457C740.856 262.636 741.352 261.907 741.979 261.269C742.605 260.62 743.351 260.107 744.217 259.731C745.095 259.355 746.08 259.167 747.174 259.167C748.131 259.167 748.985 259.298 749.737 259.56C750.489 259.811 751.122 260.215 751.634 260.773C752.158 261.32 752.557 262.021 752.831 262.875C753.104 263.73 753.241 264.755 753.241 265.952V278H751.19V265.935C751.19 264.624 750.996 263.61 750.609 262.893C750.233 262.163 749.709 261.656 749.037 261.372C748.364 261.087 747.578 260.944 746.678 260.944C745.79 260.956 745.009 261.121 744.337 261.44C743.665 261.748 743.101 262.158 742.645 262.67C742.201 263.172 741.859 263.713 741.62 264.294C741.392 264.875 741.266 265.445 741.244 266.003Z" fill="#84E575"/>
<path d="M154.643 258.801L148.759 275H146.354L153.129 257.227H154.679L154.643 258.801ZM159.574 275L153.678 258.801L153.642 257.227H155.192L161.991 275H159.574ZM159.269 268.42V270.349H149.284V268.42H159.269ZM170.951 258.801L165.067 275H162.663L169.438 257.227H170.988L170.951 258.801ZM175.883 275L169.987 258.801L169.95 257.227H171.5L178.3 275H175.883ZM175.578 268.42V270.349H165.592V268.42H175.578Z" fill="white"/>
<path d="M190.453 138.792H190.731C191.903 138.792 192.909 138.651 193.749 138.367C194.599 138.074 195.297 137.655 195.844 137.108C196.391 136.561 196.796 135.892 197.06 135.101C197.323 134.3 197.455 133.392 197.455 132.376V128.333C197.455 127.562 197.377 126.883 197.221 126.297C197.074 125.711 196.859 125.228 196.576 124.847C196.303 124.456 195.98 124.163 195.609 123.968C195.248 123.773 194.848 123.675 194.408 123.675C193.939 123.675 193.524 123.792 193.163 124.027C192.802 124.251 192.494 124.559 192.24 124.949C191.996 125.34 191.806 125.789 191.669 126.297C191.542 126.795 191.479 127.318 191.479 127.865C191.479 128.411 191.542 128.934 191.669 129.432C191.796 129.92 191.986 130.355 192.24 130.736C192.494 131.107 192.812 131.405 193.192 131.629C193.573 131.844 194.022 131.951 194.54 131.951C195.038 131.951 195.482 131.859 195.873 131.673C196.273 131.478 196.61 131.224 196.884 130.911C197.167 130.599 197.382 130.252 197.528 129.871C197.685 129.49 197.763 129.105 197.763 128.714L199.154 129.476C199.154 130.159 199.008 130.833 198.715 131.497C198.422 132.161 198.012 132.767 197.484 133.314C196.967 133.851 196.366 134.281 195.683 134.603C194.999 134.925 194.267 135.086 193.485 135.086C192.489 135.086 191.605 134.906 190.834 134.544C190.062 134.173 189.408 133.665 188.871 133.021C188.344 132.366 187.943 131.605 187.67 130.736C187.396 129.866 187.26 128.924 187.26 127.908C187.26 126.873 187.426 125.902 187.758 124.993C188.1 124.085 188.583 123.284 189.208 122.591C189.843 121.898 190.6 121.356 191.479 120.965C192.367 120.565 193.354 120.365 194.438 120.365C195.521 120.365 196.508 120.574 197.396 120.994C198.285 121.414 199.047 122.01 199.682 122.781C200.316 123.543 200.805 124.456 201.146 125.521C201.498 126.585 201.674 127.767 201.674 129.066V130.531C201.674 131.917 201.522 133.206 201.22 134.398C200.927 135.589 200.482 136.668 199.887 137.635C199.301 138.592 198.568 139.412 197.689 140.096C196.82 140.78 195.81 141.302 194.657 141.663C193.505 142.025 192.216 142.205 190.79 142.205H190.453V138.792ZM205.028 139.964C205.028 139.339 205.243 138.817 205.673 138.397C206.112 137.977 206.693 137.767 207.416 137.767C208.139 137.767 208.715 137.977 209.145 138.397C209.584 138.817 209.804 139.339 209.804 139.964C209.804 140.589 209.584 141.112 209.145 141.531C208.715 141.951 208.139 142.161 207.416 142.161C206.693 142.161 206.112 141.951 205.673 141.531C205.243 141.112 205.028 140.589 205.028 139.964ZM205.028 127.879C205.028 127.254 205.243 126.732 205.673 126.312C206.112 125.892 206.693 125.682 207.416 125.682C208.139 125.682 208.715 125.892 209.145 126.312C209.584 126.732 209.804 127.254 209.804 127.879C209.804 128.504 209.584 129.027 209.145 129.447C208.715 129.866 208.139 130.076 207.416 130.076C206.693 130.076 206.112 129.866 205.673 129.447C205.243 129.027 205.028 128.504 205.028 127.879ZM228.1 134.031V137.342H212.733L212.528 134.779L221.42 120.672H224.774L221.142 126.751L216.718 134.031H228.1ZM225.683 120.672V142H221.464V120.672H225.683ZM240.668 120.628V142H236.449V125.491L231.381 127.103V123.778L240.214 120.628H240.668Z" fill="white"/>
<path fill-rule="evenodd" clip-rule="evenodd" d="M391.6 262.36V259.561C391.601 256.859 390.161 254.363 387.822 253.013C385.483 251.662 382.601 251.662 380.263 253.013C377.924 254.364 376.484 256.86 376.485 259.561V262.36H374V269.02C374 274.565 378.495 279.061 384.041 279.061C389.586 279.061 394.082 274.565 394.082 269.02V262.36H391.6ZM384.835 271.76V274.232H383.248V271.762C381.852 271.367 380.961 270.003 381.161 268.565C381.361 267.128 382.59 266.059 384.041 266.059C385.491 266.059 386.72 267.128 386.92 268.565C387.12 270.003 386.229 271.367 384.833 271.762L384.835 271.76ZM390.014 262.36H378.069V259.561C378.069 256.262 380.743 253.588 384.041 253.588C387.339 253.588 390.013 256.262 390.013 259.561L390.014 262.36Z" fill="#80E770"/>
</svg>
